<?xml version="1.0" encoding="UTF-8"?>
<svg width="24px" height="24px" viewBox="0 0 24 24" version="1.1" xmlns="http://www.w3.org/2000/svg" xmlns:xlink="http://www.w3.org/1999/xlink">
    <title>E9EB498F-1815-40AF-AF82-BB926E6AE587</title>
    <g id="Page---Pre-MVP---Clips" stroke="none" stroke-width="1" fill="none" fill-rule="evenodd">
        <g id="Video-(Clips)---Pre-MVP---Light---320---A" transform="translate(-272.000000, -13.000000)" fill="#FFFFFF">
            <g id="icon-avatar" transform="translate(272.000000, 13.000000)">
                <path d="M12,0 C18.627417,0 24,5.372583 24,12 C24,18.627417 18.627417,24 12,24 C5.372583,24 0,18.627417 0,12 C0,5.372583 5.372583,0 12,0 Z M12,2 C6.4771525,2 2,6.4771525 2,12 C2,15.0290091 3.34671883,17.7434751 5.47405904,19.5773007 L6,18 C6.01407153,17.8962586 6.10352626,17.6650279 6.12011056,17.6217815 C6.1696122,17.4897925 6.2326828,17.3805516 6.35203953,17.2998083 C6.66312086,17.0913257 7.10361002,17.0003333 7.44936762,16.8563453 C7.98458832,16.6351137 8.51101432,16.3938838 9.00477427,16.0911591 C9.33118352,15.8916757 9.70232013,15.6616949 9.83926627,15.2954754 L9.83901499,15.2949754 C9.86565039,15.2247313 9.88625513,15.1509874 9.89278834,15.0692442 C9.90334199,14.9452546 9.94882318,14.5595367 9.87570148,14.4617949 C9.79504146,14.3540538 9.71664293,14.2355637 9.63975207,14.1113241 C9.38596197,13.7391051 9.14951001,13.2903925 8.95527264,12.743438 C8.72057961,12.7539372 8.44945138,12.3652196 8.33562275,11.8392634 C8.22380434,11.3220565 8.30747969,10.8678443 8.51704498,10.7701025 C8.48789681,10.5133739 8.46402546,10.2466461 8.45121032,9.96291976 C8.45121032,9.96291976 7.8363347,6 11.9994974,6 C16.1636653,6 15.5492922,9.96291976 15.5492922,9.96291976 C15.5359745,10.2466461 15.5123545,10.5133739 15.4832063,10.7701025 C15.6930229,10.8678443 15.7756931,11.3225565 15.6643773,11.8392634 C15.5513025,12.3652196 15.2799229,12.7539372 15.0449786,12.743438 C14.85049,13.2898925 14.614038,13.7386051 14.3607505,14.1108241 C14.2833571,14.2350637 14.204456,14.3540538 14.123796,14.4617949 C14.1094732,14.4810432 14.1029399,14.5177902 14.096658,14.5550371 C14.0928889,14.5777852 14.089371,14.6012832 14.0881146,14.628531 C14.0856018,14.6677777 14.0838429,14.7072744 14.084848,14.7500208 L14.084848,14.75952 C14.0866069,14.819515 14.0908786,14.88051 14.0951503,14.9332556 C14.0956529,14.9392551 14.096658,14.9500042 14.096658,14.9500042 C14.1004272,14.9962503 14.1046989,15.0399967 14.1067091,15.0672444 C14.1137449,15.1509874 14.1343496,15.2239813 14.1607337,15.2949754 C14.2974286,15.6616949 14.6688165,15.8916757 14.9957283,16.0911591 C15.489237,16.3938838 16.0154117,16.6351137 16.5496273,16.8563453 C16.8958874,17.0003333 17.3373817,17.0913257 17.6477092,17.2998083 C17.7673172,17.3805516 17.8303878,17.4897925 17.8798894,17.6217815 C17.8964737,17.6650279 17.9861797,17.8962586 18,18 L18.525941,19.5773007 C20.6532812,17.7434751 22,15.0290091 22,12 C22,6.4771525 17.5228475,2 12,2 Z M30.5,15 C31.3284271,15 32,15.6715729 32,16.5 C32,17.3284271 31.3284271,18 30.5,18 C29.6715729,18 29,17.3284271 29,16.5 C29,15.6715729 29.6715729,15 30.5,15 Z M30.5,11 C31.3284271,11 32,11.6715729 32,12.5 C32,13.3284271 31.3284271,14 30.5,14 C29.6715729,14 29,13.3284271 29,12.5 C29,11.6715729 29.6715729,11 30.5,11 Z M30.5,7 C31.3284271,7 32,7.67157288 32,8.5 C32,9.32842712 31.3284271,10 30.5,10 C29.6715729,10 29,9.32842712 29,8.5 C29,7.67157288 29.6715729,7 30.5,7 Z" id="avatar-logged-out"></path>
            </g>
        </g>
    </g>
</svg>