<?xml version="1.0" encoding="UTF-8"?>
<svg width="16px" height="16px" viewBox="0 0 16 16" version="1.1" xmlns="http://www.w3.org/2000/svg" xmlns:xlink="http://www.w3.org/1999/xlink">
    <title>401E295F-A19E-4A25-8CC7-E2C763977496</title>
    <g id="Page---Pre-MVP---Clips" stroke="none" stroke-width="1" fill="none" fill-rule="evenodd">
        <g id="Video-(Clips)---Pre-MVP---Light---320---A" transform="translate(-144.000000, -416.000000)" fill="#FFFFFF">
            <g id="video-metadata" transform="translate(0.000000, 242.000000)">
                <g id="link" transform="translate(136.000000, 166.000000)">
                    <g id="icon-link" transform="translate(8.000000, 8.000000)">
                        <path d="M9.5067512,7.99386657 C9.94408378,7.56387675 10.376083,7.12988702 10.8134156,6.70189715 C10.8807488,6.63589872 10.8994155,6.5845666 10.8400822,6.5072351 C10.6814159,6.29590676 10.5440828,6.06524556 10.3654164,5.87258345 C8.75875248,4.13795785 6.06342376,4.03196036 4.34876003,5.65992182 C3.28476185,6.67056456 2.25276361,7.71587315 1.2280987,8.7658483 C0.244100384,9.77315779 -0.164565583,11.0004621 0.060100699,12.3864293 C0.326100244,14.0283904 1.26743197,15.1823631 2.84009594,15.7316834 C4.4227599,16.2850036 5.88942405,15.9790109 7.13208859,14.846371 C7.93942055,14.1117218 8.68741927,13.3124073 9.46141794,12.5410923 C9.47808458,12.5250926 9.48675123,12.5017599 9.50875119,12.467094 C8.60408608,12.5957576 7.74075422,12.5044265 6.898089,12.2057669 C6.85408907,12.1904339 6.77275588,12.2224331 6.73542261,12.2590989 C6.41475649,12.5704249 6.10275702,12.891084 5.78342424,13.2030766 C5.22742519,13.7477304 4.56475966,13.9743917 3.79942763,13.8030624 C3.00276233,13.6250666 2.46542992,13.1310783 2.22876365,12.3510968 C1.98543074,11.5477824 2.1834304,10.8304661 2.7674294,10.2364802 C3.74676106,9.24117038 4.73342603,8.25386042 5.73142433,7.27721687 C6.61475615,6.41257067 7.91075393,6.42123713 8.75808581,7.27055036 C9.00141873,7.51387793 9.15875179,7.80720432 9.27741826,8.15986264 C9.3674181,8.09519751 9.44608463,8.05386515 9.5067512,7.99386657 M6.72142263,7.83320371 C6.84408909,8.20052835 7.00942214,8.49985459 7.26275504,8.75051533 C8.08408697,9.56316276 9.41408469,9.56916262 10.23075,8.75584853 C11.2400816,7.75120565 12.2467465,6.74456281 13.2540781,5.73791997 C14.0620767,4.9286058 14.0727434,3.63996963 13.2807447,2.79732291 C12.5087461,1.97800898 11.1907483,1.91467714 10.3514164,2.67465915 C9.97941705,3.01131785 9.63941764,3.38264239 9.27941825,3.73263411 C9.23875166,3.77263316 9.15141847,3.80996561 9.10541855,3.79329934 C8.26275333,3.49597304 7.40008814,3.40197527 6.49408969,3.53197219 C6.51342299,3.49863965 6.52075631,3.47530687 6.53608961,3.4599739 C7.3020883,2.69665863 8.0467537,1.90934393 8.84075234,1.17669461 C10.0827502,0.0320550387 11.5487477,-0.286604085 13.1414116,0.260716293 C14.7187423,0.803370114 15.6654073,1.95334289 15.9374069,3.59397072 C16.1720731,5.01193716 15.7420739,6.25590771 14.7287423,7.28055012 C13.7154107,8.30452588 12.6927457,9.31850188 11.6674142,10.3298113 C10.0654169,11.9091072 7.3407549,11.8711081 5.75142429,10.24448 C5.53409133,10.0218186 5.36342496,9.75315826 5.17009195,9.50649743 C5.10942539,9.42983258 5.10609206,9.37383391 5.18542526,9.29716905 C5.61142453,8.88051225 6.02942382,8.45585564 6.45342309,8.03719888 C6.5267563,7.96586723 6.61742281,7.91186851 6.72142263,7.83320371" id="link"></path>
                    </g>
                </g>
            </g>
        </g>
    </g>
</svg>